<svg xmlns="http://www.w3.org/2000/svg" viewBox="0 0 48 48" width="48" height="48">
  <defs>
    <linearGradient id="medGrad" x1="0%" y1="0%" x2="100%" y2="100%">
      <stop offset="0%" stop-color="#0D9488" />
      <stop offset="100%" stop-color="#0284C7" />
    </linearGradient>
  </defs>
  <rect width="48" height="48" rx="12" fill="url(#medGrad)" />
  <!-- Pill shape -->
  <path d="M15 21a6 6 0 0 1 8.48 0l8.52 8.52a6 6 0 0 1-8.48 8.48L15 29.48A6 6 0 0 1 15 21z" fill="#FFFFFF" opacity="0.95" />
  <path d="M15 21a6 6 0 0 1 8.48 0l-4.24 4.24L15 21z" fill="#CCFBF1" />
  <!-- Clock accent -->
  <circle cx="33" cy="15" r="9" fill="#0F172A" stroke="#FFFFFF" stroke-width="2"/>
  <polyline points="33,10 33,15 37,17" fill="none" stroke="#38BDF8" stroke-width="2" stroke-linecap="round"/>
  <!-- Checkmark -->
  <path d="M21 31l3 3 7-7" fill="none" stroke="#0D9488" stroke-width="2.5" stroke-linecap="round" stroke-linejoin="round"/>
</svg>
